<svg xmlns="http://www.w3.org/2000/svg" version="1.1" xmlns:xlink="http://www.w3.org/1999/xlink" xmlns:svgjs="http://svgjs.dev/svgjs" width="1000" height="1000" viewBox="0 0 1000 1000"><rect width="1000" height="1000" fill="#000000"></rect><g transform="matrix(0.7,0,0,0.7,149.36722234613723,152.03198504507708)"><svg viewBox="0 0 248 247" data-background-color="#ffffff" preserveAspectRatio="xMidYMid meet" height="995" width="1000" xmlns="http://www.w3.org/2000/svg" xmlns:xlink="http://www.w3.org/1999/xlink"><g id="tight-bounds" transform="matrix(1,0,0,1,0.2241841380306937,-0.10000043953201043)"><svg viewBox="0 0 247.55162831716902 247.2" height="247.2" width="247.55162831716902"><g><svg viewBox="0 0 395.5199999999999 394.95819383070864" height="247.2" width="247.55162831716902"><g transform="matrix(1,0,0,1,0,260.7606818095188)"><svg viewBox="0 0 395.5199999999999 134.19751202118982" height="134.19751202118982" width="395.5199999999999"><g><svg viewBox="0 0 395.5199999999999 134.19751202118982" height="134.19751202118982" width="395.5199999999999"><g><svg viewBox="0 0 395.5199999999999 77.70121363258521" height="77.70121363258521" width="395.5199999999999"><g transform="matrix(1,0,0,1,0,0)"><svg width="395.5199999999999" viewBox="2.049999952316284 -35.38999938964844 182.44000244140625 35.850830078125" height="77.70121363258521" data-palette-color="#31c48d"><path d="M2.05-1.64L2.05-9.66Q4.73-8.27 7.46-7.56 10.19-6.85 12.3-6.85 14.41-6.85 15.38-7.52 16.35-8.19 16.35-9.33L16.35-9.33Q16.35-10.01 15.98-10.52L15.98-10.52Q15.57-11.02 14.83-11.51 14.08-12.01 10.54-13.62 7-15.24 5.46-16.56L5.46-16.56Q2.28-19.29 2.28-23.94 2.28-28.59 5.61-31.17L5.61-31.17Q8.97-33.75 14.81-33.75L14.81-33.75Q19.94-33.75 25.35-31.34L25.35-31.34 22.6-24.42Q17.95-26.54 14.53-26.54L14.53-26.54Q12.87-26.54 12.03-25.96 11.2-25.38 11.2-24.41 11.2-23.43 12.22-22.65 13.25-21.87 17.62-19.88 21.99-17.9 23.66-15.67L23.66-15.67Q25.35-13.5 25.35-10.11L25.35-10.11Q25.4-5.41 21.8-2.45 18.2 0.51 12.31 0.46L12.31 0.46Q8.95 0.46 6.66-0.04 4.37-0.53 2.05-1.64L2.05-1.64ZM45.52-12.93Q45.52-16.35 44.64-17.99 43.75-19.62 41.72-19.62 39.68-19.62 38.79-17.97 37.89-16.33 37.89-12.93 37.89-9.53 38.8-7.84 39.71-6.14 41.74-6.14 43.78-6.14 44.65-7.82 45.52-9.5 45.52-12.93ZM54.57-12.94L54.57-12.94Q54.57-6.62 51.17-3.08 47.77 0.46 41.78 0.46 35.79 0.46 32.3-3.16L32.3-3.16Q28.84-6.77 28.84-12.99 28.84-19.21 32.23-22.72L32.23-22.72Q35.64-26.24 41.78-26.24L41.78-26.24Q47.52-26.31 51.08-22.64 54.65-18.96 54.57-12.94ZM78.96-12.49L69-12.49 69 0 60.16 0 60.16-33.27 79.82-33.27 79.82-26.04 69-26.04 69-19.69 78.96-19.69 78.96-12.49ZM100.32-26.24L100.32-26.24Q101.18-26.24 103.03-25.96L103.03-25.96 102.24-17.57Q101.08-17.85 99.21-17.85L99.21-17.85Q93.65-17.85 93.65-12.66L93.65-12.66 93.65 0 84.75 0 84.75-25.78 91.37-25.78 92.76-21.66 93.19-21.66Q94.3-23.74 96.31-24.99 98.32-26.24 100.32-26.24ZM121.38-16.08Q121.35-17.95 120.34-19.06 119.33-20.17 117.65-20.17 115.97-20.17 114.94-19.15 113.92-18.12 113.74-16.08L113.74-16.08 121.38-16.08ZM118.14 0.46L118.14 0.46Q111.69 0.46 108.13-2.96L108.13-2.96Q104.57-6.42 104.57-12.84 104.57-19.26 107.85-22.75 111.14-26.24 117.13-26.24 123.12-26.24 126.29-23.18 129.46-20.12 129.46-14.43L129.46-14.43 129.46-10.49 113.56-10.49Q113.64-8.32 115.13-7.09 116.62-5.86 119.06-5.86 121.5-5.86 123.5-6.31 125.5-6.75 127.77-7.84L127.77-7.84 127.77-1.44Q125.75-0.38 123.51 0.04 121.27 0.46 118.14 0.46ZM151.78-13.93L151.78-13.93Q154.39-11.88 154.39-7.84 154.39-3.79 151.59-1.67 148.8 0.46 143.47 0.46L143.47 0.46Q140.61 0.46 138.49 0.15 136.36-0.15 134.16-0.99L134.16-0.99 134.16-8.09Q136.34-7.13 138.78-6.57 141.22-6.02 143.11-6.02L143.11-6.02Q145.99-6.02 145.99-7.33L145.99-7.33Q145.99-8.01 145.21-8.53 144.43-9.05 140.48-10.62L140.48-10.62Q136.89-12.13 135.5-13.97 134.11-15.8 134.11-18.63L134.11-18.63Q134.11-22.19 136.89-24.22 139.67-26.24 144.46-26.24 149.25-26.24 154.18-24.04L154.18-24.04 151.76-18.3Q149.96-19.11 148.03-19.67 146.09-20.22 144.78-20.22L144.78-20.22Q142.61-20.22 142.61-19.16L142.61-19.16Q142.61-18.5 143.36-18.04 144.12-17.57 147.76-16.13L147.76-16.13Q150.47-15.02 151.78-13.93ZM184.49-16.76L184.49 0 175.54 0 175.54-14.05Q175.54-19.24 172.48-19.24L172.48-19.24Q170.26-19.24 169.23-17.38 168.21-15.52 168.21-11.32L168.21-11.32 168.21 0 159.31 0 159.31-35.39 168.21-35.39 168.21-30.36Q168.21-27.12 167.86-22.6L167.86-22.6 168.26-22.6Q169.52-24.54 171.24-25.39 172.96-26.24 175.36-26.24L175.36-26.24Q179.71-26.24 182.1-23.75 184.49-21.26 184.49-16.76L184.49-16.76Z" opacity="1" transform="matrix(1,0,0,1,0,0)" fill="#ffffff" class="undefined-text-0" data-fill-palette-color="primary" id="text-0"></path></svg></g></svg></g><g transform="matrix(1,0,0,1,0,96.0446053421114)"><svg viewBox="0 0 395.5199999999999 38.15290667907842" height="38.15290667907842" width="395.5199999999999"><g transform="matrix(1,0,0,1,0,0)"><svg width="395.5199999999999" viewBox="3.6500000953674316 -35.349998474121094 429.6499938964844 41.44999694824219" height="38.15290667907842" data-palette-color="#31c48d"><path d="M21.15-32.5L21.15-32.5 21.15-29.05Q19.95-29.85 18-30.4 16.05-30.95 14.2-30.95L14.2-30.95Q10.85-30.95 8.85-29.38 6.85-27.8 6.85-25.2L6.85-25.2Q6.85-23.85 7.38-22.8 7.9-21.75 9.15-20.88 10.4-20 11.33-19.53 12.25-19.05 14.15-18.25L14.15-18.25Q15.9-17.5 16.8-17.07 17.7-16.65 19.1-15.75 20.5-14.85 21.23-13.98 21.95-13.1 22.53-11.73 23.1-10.35 23.1-8.7L23.1-8.7Q23.1-4.3 20.15-1.98 17.2 0.35 12.6 0.35L12.6 0.35Q7.4 0.35 3.75-1.85L3.75-1.85 3.75-5.3Q5.25-4.15 7.63-3.4 10-2.65 12.45-2.65L12.45-2.65Q16-2.65 17.98-4.2 19.95-5.75 19.95-8.65L19.95-8.65Q19.95-10.85 18.45-12.23 16.95-13.6 14.1-14.85L14.1-14.85Q13.7-15.05 12.35-15.63 11-16.2 10.45-16.45 9.9-16.7 8.75-17.3 7.6-17.9 7.08-18.35 6.55-18.8 5.75-19.55 4.95-20.3 4.6-21.05 4.25-21.8 3.95-22.83 3.65-23.85 3.65-25L3.65-25Q3.65-29.25 6.7-31.63 9.75-34 14.15-34L14.15-34Q18.35-34 21.15-32.5ZM40.25 0.45L40.25 0.45Q34.9 0.45 31.75-3.25 28.6-6.95 28.6-12.55L28.6-12.55Q28.6-18.1 31.85-21.9 35.1-25.7 40.25-25.7L40.25-25.7Q45.9-25.7 49.02-21.98 52.15-18.25 52.15-12.55L52.15-12.55Q52.15-6.9 48.97-3.23 45.8 0.45 40.25 0.45ZM40.25-22.8L40.25-22.8Q36.3-22.8 34.05-19.8 31.8-16.8 31.8-12.55L31.8-12.55Q31.8-8.4 34.12-5.43 36.45-2.45 40.25-2.45L40.25-2.45Q44.4-2.45 46.67-5.38 48.95-8.3 48.95-12.55L48.95-12.55Q48.95-16.95 46.8-19.88 44.65-22.8 40.25-22.8ZM73.59 0L70.49 0 70.49-33.7 74.74-33.7 83.34-19.45 92.84-3.65Q92.74-8.85 92.74-19.4L92.74-19.4 92.74-33.7 95.84-33.7 95.84 0 91.59 0 83.04-14.15 73.49-30.05Q73.59-24.65 73.59-14.25L73.59-14.25 73.59 0ZM105.29-14.1L120.24-14.1 120.24-15.25Q120.24-18.7 118.31-20.75 116.39-22.8 113.14-22.8L113.14-22.8Q109.94-22.8 107.79-20.55 105.64-18.3 105.29-14.1L105.29-14.1ZM121.79-4.35L121.79-4.35 121.79-1.25Q118.79 0.25 114.79 0.25L114.79 0.25Q109.14 0.25 105.62-3.28 102.09-6.8 102.09-12.55L102.09-12.55Q102.09-18.65 105.19-22.15 108.29-25.65 113.24-25.65L113.24-25.65Q117.89-25.65 120.64-22.6 123.39-19.55 123.39-14L123.39-14Q123.39-12.3 123.19-11.3L123.19-11.3 105.29-11.3Q105.64-7.1 108.19-4.88 110.74-2.65 114.94-2.65L114.94-2.65Q119.24-2.65 121.79-4.35ZM143.54-8.4L143.54-12.05 138.59-12.05Q135.04-12.05 133.29-10.68 131.54-9.3 131.54-7.25L131.54-7.25Q131.54-5.15 132.91-3.85 134.29-2.55 136.94-2.55L136.94-2.55Q139.94-2.55 141.74-4.2 143.54-5.85 143.54-8.4L143.54-8.4ZM130.14-20.7L130.14-20.7 130.14-24Q133.04-25.75 137.29-25.75L137.29-25.75Q146.59-25.75 146.59-16L146.59-16 146.59 0 143.54 0 143.54-2.95Q141.44 0.25 136.24 0.25L136.24 0.25Q132.74 0.25 130.51-1.83 128.29-3.9 128.29-7.15L128.29-7.15Q128.29-10.8 131.11-12.83 133.94-14.85 138.59-14.85L138.59-14.85 143.54-14.85 143.54-16Q143.54-19.4 142.09-21.13 140.64-22.85 137.24-22.85L137.24-22.85Q133.29-22.85 130.14-20.7ZM153.89-25.35L156.94-25.35 156.94-21.05Q159.03-25.65 164.03-25.65L164.03-25.65Q164.39-25.65 165.28-25.55L165.28-25.55 165.28-22.45Q164.28-22.75 163.28-22.75L163.28-22.75Q160.59-22.75 158.76-20.08 156.94-17.4 156.94-14.15L156.94-14.15 156.94 0 153.89 0 153.89-25.35ZM168.08 6.1L165.38 6.1 169.93-4.6 174.43-4.6 168.08 6.1ZM195.58 0L192.48 0 192.48-33.7 195.58-33.7 195.58 0ZM215.57-22.75L208.32-22.75 208.32-7Q208.32-2.65 212.38-2.65L212.38-2.65Q214.38-2.65 215.77-3.8L215.77-3.8 215.77-0.7Q214.32 0.25 212.42 0.25L212.42 0.25Q205.22 0.25 205.22-7.15L205.22-7.15 205.22-22.75 201.07-22.75 201.07-25.35 205.22-25.35 205.22-31.7 208.32-31.7 208.32-25.35 215.57-25.35 215.57-22.75ZM223.12-22.55L220.27-22.55 220.27-34.05 223.12-34.05 223.12-22.55ZM242.42-24.45L242.42-24.45 242.42-21.4Q240.07-22.75 236.07-22.75L236.07-22.75Q233.87-22.75 232.59-21.73 231.32-20.7 231.32-19.05L231.32-19.05Q231.32-18.05 231.69-17.3 232.07-16.55 232.99-15.93 233.92-15.3 234.57-15 235.22-14.7 236.67-14.1L236.67-14.1Q240.17-12.7 242.04-11.03 243.92-9.35 243.92-6.5L243.92-6.5Q243.92-3.35 241.74-1.53 239.57 0.3 235.77 0.3L235.77 0.3Q231.17 0.3 228.37-1.2L228.37-1.2 228.37-4.35Q231.72-2.45 235.57-2.45L235.57-2.45Q238.12-2.45 239.44-3.5 240.77-4.55 240.77-6.25L240.77-6.25Q240.77-8.25 239.39-9.35 238.02-10.45 234.87-11.7L234.87-11.7Q231.82-12.9 230.02-14.5 228.22-16.1 228.22-18.9L228.22-18.9Q228.22-21.95 230.47-23.78 232.72-25.6 236.12-25.6L236.12-25.6Q240.22-25.6 242.42-24.45ZM278.91-32.5L278.91-32.5 278.91-29.05Q277.71-29.85 275.76-30.4 273.81-30.95 271.96-30.95L271.96-30.95Q268.62-30.95 266.62-29.38 264.62-27.8 264.62-25.2L264.62-25.2Q264.62-23.85 265.14-22.8 265.66-21.75 266.91-20.88 268.16-20 269.09-19.53 270.01-19.05 271.91-18.25L271.91-18.25Q273.66-17.5 274.56-17.07 275.46-16.65 276.87-15.75 278.26-14.85 278.99-13.98 279.71-13.1 280.29-11.73 280.87-10.35 280.87-8.7L280.87-8.7Q280.87-4.3 277.91-1.98 274.96 0.35 270.37 0.35L270.37 0.35Q265.16 0.35 261.51-1.85L261.51-1.85 261.51-5.3Q263.01-4.15 265.39-3.4 267.76-2.65 270.21-2.65L270.21-2.65Q273.76-2.65 275.74-4.2 277.71-5.75 277.71-8.65L277.71-8.65Q277.71-10.85 276.21-12.23 274.71-13.6 271.87-14.85L271.87-14.85Q271.46-15.05 270.12-15.63 268.76-16.2 268.21-16.45 267.66-16.7 266.51-17.3 265.37-17.9 264.84-18.35 264.31-18.8 263.51-19.55 262.71-20.3 262.37-21.05 262.01-21.8 261.71-22.83 261.41-23.85 261.41-25L261.41-25Q261.41-29.25 264.46-31.63 267.51-34 271.91-34L271.91-34Q276.12-34 278.91-32.5ZM298.01 0.45L298.01 0.45Q292.66 0.45 289.51-3.25 286.36-6.95 286.36-12.55L286.36-12.55Q286.36-18.1 289.61-21.9 292.86-25.7 298.01-25.7L298.01-25.7Q303.66-25.7 306.79-21.98 309.91-18.25 309.91-12.55L309.91-12.55Q309.91-6.9 306.74-3.23 303.56 0.45 298.01 0.45ZM298.01-22.8L298.01-22.8Q294.06-22.8 291.81-19.8 289.56-16.8 289.56-12.55L289.56-12.55Q289.56-8.4 291.89-5.43 294.21-2.45 298.01-2.45L298.01-2.45Q302.16-2.45 304.44-5.38 306.71-8.3 306.71-12.55L306.71-12.55Q306.71-16.95 304.56-19.88 302.41-22.8 298.01-22.8ZM334.11-33.7L334.11-30.85 319.26-30.85 319.26-18 332.36-18 332.36-15.15 319.26-15.15 319.26 0 316.16 0 316.16-33.7 334.11-33.7ZM340.16-25.35L343.21-25.35 343.21-21.05Q345.31-25.65 350.31-25.65L350.31-25.65Q350.66-25.65 351.56-25.55L351.56-25.55 351.56-22.45Q350.56-22.75 349.56-22.75L349.56-22.75Q346.86-22.75 345.03-20.08 343.21-17.4 343.21-14.15L343.21-14.15 343.21 0 340.16 0 340.16-25.35ZM357.5-14.1L372.45-14.1 372.45-15.25Q372.45-18.7 370.53-20.75 368.61-22.8 365.36-22.8L365.36-22.8Q362.16-22.8 360-20.55 357.86-18.3 357.5-14.1L357.5-14.1ZM374-4.35L374-4.35 374-1.25Q371 0.25 367 0.25L367 0.25Q361.36 0.25 357.83-3.28 354.31-6.8 354.31-12.55L354.31-12.55Q354.31-18.65 357.41-22.15 360.5-25.65 365.45-25.65L365.45-25.65Q370.11-25.65 372.86-22.6 375.61-19.55 375.61-14L375.61-14Q375.61-12.3 375.41-11.3L375.41-11.3 357.5-11.3Q357.86-7.1 360.41-4.88 362.95-2.65 367.16-2.65L367.16-2.65Q371.45-2.65 374-4.35ZM395.05-24.45L395.05-24.45 395.05-21.4Q392.7-22.75 388.7-22.75L388.7-22.75Q386.5-22.75 385.23-21.73 383.95-20.7 383.95-19.05L383.95-19.05Q383.95-18.05 384.33-17.3 384.7-16.55 385.63-15.93 386.55-15.3 387.2-15 387.85-14.7 389.3-14.1L389.3-14.1Q392.8-12.7 394.68-11.03 396.55-9.35 396.55-6.5L396.55-6.5Q396.55-3.35 394.38-1.53 392.2 0.3 388.4 0.3L388.4 0.3Q383.8 0.3 381-1.2L381-1.2 381-4.35Q384.35-2.45 388.2-2.45L388.2-2.45Q390.75-2.45 392.08-3.5 393.4-4.55 393.4-6.25L393.4-6.25Q393.4-8.25 392.03-9.35 390.65-10.45 387.5-11.7L387.5-11.7Q384.45-12.9 382.65-14.5 380.85-16.1 380.85-18.9L380.85-18.9Q380.85-21.95 383.1-23.78 385.35-25.6 388.75-25.6L388.75-25.6Q392.85-25.6 395.05-24.45ZM402.1-35.35L405.15-35.35 405.15-21Q407.45-25.75 413.2-25.75L413.2-25.75Q416.85-25.75 419.05-23.5 421.25-21.25 421.25-17.7L421.25-17.7 421.25 0 418.2 0 418.2-16.75Q418.2-19.7 416.7-21.25 415.2-22.8 412.75-22.8L412.75-22.8Q409.65-22.8 407.4-20.43 405.15-18.05 405.15-14L405.15-14 405.15 0 402.1 0 402.1-35.35ZM432.3-9.8L429.25-9.8 429.25-33.7 432.3-33.7 432.3-9.8ZM428.2-2.1L428.2-2.1Q428.2-3.15 428.92-3.9 429.65-4.65 430.7-4.65L430.7-4.65Q431.8-4.65 432.55-3.9 433.3-3.15 433.3-2.1L433.3-2.1Q433.3-1 432.55-0.3 431.8 0.4 430.7 0.4 429.6 0.4 428.9-0.3 428.2-1 428.2-2.1Z" opacity="1" transform="matrix(1,0,0,1,0,0)" fill="#ffffff" class="undefined-text-1" data-fill-palette-color="secondary" id="text-1"></path></svg></g></svg></g></svg></g></svg></g><g transform="matrix(1,0,0,1,85.72305080476676,0)"><svg viewBox="0 0 224.0738983904664 224.0738983904664" height="224.0738983904664" width="224.0738983904664"><g><svg></svg></g><g id="icon-0"><svg viewBox="0 0 224.0738983904664 224.0738983904664" height="224.0738983904664" width="224.0738983904664"><g><path d="M0 112.037c0-61.876 50.161-112.037 112.037-112.037 61.876 0 112.037 50.161 112.037 112.037 0 61.876-50.161 112.037-112.037 112.037-61.876 0-112.037-50.161-112.037-112.037zM112.037 217.067c58.006 0 105.03-47.023 105.03-105.03 0-58.006-47.023-105.03-105.03-105.03-58.006 0-105.03 47.023-105.03 105.03 0 58.006 47.023 105.03 105.03 105.03z" data-fill-palette-color="accent" fill="#ffffff" stroke="transparent"></path><ellipse rx="110.91657970328087" ry="110.91657970328087" cx="112.0369491952332" cy="112.0369491952332" fill="#ffffff" stroke="transparent" stroke-width="0" fill-opacity="1" data-fill-palette-color="accent"></ellipse></g><g transform="matrix(1,0,0,1,50.19104305652086,53.98814120054577)"><svg viewBox="0 0 123.69181227742469 116.09761598937487" height="116.09761598937487" width="123.69181227742469"><g><svg xmlns="http://www.w3.org/2000/svg" xmlns:xlink="http://www.w3.org/1999/xlink" version="1.1" x="0" y="0" viewBox="9.458999633789062 11.94900131225586 81.08000183105469 76.10200500488281" enable-background="new 0 0 100 100" xml:space="preserve" height="116.09761598937487" width="123.69181227742469" class="icon-a-0" data-fill-palette-color="quaternary" id="a-0"><g fill="#ffffff" data-fill-palette-color="quaternary"><path d="M90.527 50.653c0.012-0.216 0.012-0.445 0.012-0.661 0-21.01-18.15-38.043-40.539-38.043-22.389 0-40.541 17.033-40.541 38.043 0 0.216 0 0.445 0.013 0.661C9.46 50.762 9.46 50.883 9.46 51.004c0 0.609 0.041 1.215 0.121 1.809 0.878 7.668 7.396 13.617 15.304 13.617 4.4 0 8.354-1.836 11.161-4.789v26.396h13.009c0.311 0 0.635 0.014 0.945 0.014 0.324 0 0.633-0.014 0.957-0.014h12.833V61.633c-0.002 0-0.004 0.002-0.006 0.004l0.088-8.85c0 0 3.73-5.223 5.906-1.432 1.973 3.434-1.371 6.744-5.893 10.203l0 0c2.807 2.996 6.816 4.871 11.229 4.871 7.895 0 14.412-5.936 15.316-13.588v-0.029c0.068-0.594 0.107-1.199 0.107-1.809 0-0.108 0-0.203-0.012-0.309V50.653zM30.045 51.355c2.176-3.791 5.907 1.432 5.907 1.432l0.088 8.85C31.466 58.15 28.058 54.816 30.045 51.355z" fill="#ffffff" data-fill-palette-color="quaternary"></path></g></svg></g></svg></g></svg></g></svg></g><g></g></svg></g><defs></defs></svg><rect width="247.55162831716902" height="247.2" fill="none" stroke="none" visibility="hidden"></rect></g></svg></g></svg>